<?xml version="1.0" ?>
<!-- Uploaded to: SVG Repo, www.svgrepo.com, Generator: SVG Repo Mixer Tools -->
<svg fill="#000000" width="800px" height="800px" viewBox="0 0 64 64" xmlns="http://www.w3.org/2000/svg">
<title/>
<g data-name="Money Flow" id="Money_Flow">
<path d="M60,11H32a1,1,0,0,0-1,1v7H13a1,1,0,0,0-1,1V33.32H4a1,1,0,0,0-1,1V52a1,1,0,0,0,1,1H32a1,1,0,0,0,1-1V45H51a1,1,0,0,0,1-1V30.68h8a1,1,0,0,0,1-1V12A1,1,0,0,0,60,11ZM31,51H5V35.32h7V44a1,1,0,0,0,1,1H31ZM50,38.09A6,6,0,0,0,45.09,43H14V25.91A6,6,0,0,0,18.91,21H50Zm9-9.41H52V20a1,1,0,0,0-1-1H33V13H59Z"/>
<circle cx="32" cy="32" r="7"/>
<polygon points="38.63 17 43 17 43 15 38.63 15 38.63 13.91 35 16 38.63 18.09 38.63 17"/>
<polygon points="25.37 50.09 29 48 25.37 45.91 25.37 47 21 47 21 49 25.37 49 25.37 50.09"/>
</g>
</svg>